# xmcd
#
# Track frame offsets:
#	150
#	23180
#	43401
#	64233
#	84018
#	98505
#	110742
#	125462
#	142892
#	158339
#	182647
#	200284
#	216537
#	233599
#	252646
#	267150
#	283805
#	311450
#	329286
#
# Disc length: 4700 seconds
#
# Revision: 0
# Processed by: cddbd v1.4PL0 Copyright (c) Steve Scherf et al.
# Submitted via: dBpowerAMP V4.0
#
DISCID=0d125a13
DTITLE=Joe Coocker - The Vary Best Of
DYEAR=1999
DGENRE=Blues
TTITLE0=Unchain my Heart
TTITLE1=My Fathe's Son
TTITLE2=Now That The Magic Has Gone
TTITLE3=Many Rivers To Cross
TTITLE4=Dignity
TTITLE5=You Are So Beautiful
TTITLE6=Delta Lady
TTITLE7=Don't Let Me Be Misunderstood
TTITLE8=Night Calls
TTITLE9=Don't You Love me Anymore
TTITLE10=Summer In The City
TTITLE11=The Great Divide
TTITLE12=Out Of The Blue
TTITLE13=You Can Leave Your Hat On
TTITLE14=One Nught Of Sin
TTITLE15=First We Take Manhattan
TTITLE16=St. James Infirmary Blues
TTITLE17=Sorry Seems To Be The Hardest Word
TTITLE18=With A Little Help From My Friends
EXTD=
EXTT0=
EXTT1=
EXTT2=
EXTT3=
EXTT4=
EXTT5=
EXTT6=
EXTT7=
EXTT8=
EXTT9=
EXTT10=
EXTT11=
EXTT12=
EXTT13=
EXTT14=
EXTT15=
EXTT16=
EXTT17=
EXTT18=
PLAYORDER=
